<svg width="124" height="31" viewBox="0 0 124 31" fill="none" xmlns="http://www.w3.org/2000/svg">
<path d="M0.92 23V0.599998H4.824V19.096H14.152V23H0.92ZM23.3975 23.416C21.9255 23.416 20.5815 23.0373 19.3655 22.28C18.1602 21.5227 17.1948 20.5093 16.4695 19.24C15.7548 17.96 15.3975 16.5467 15.3975 15C15.3975 13.8267 15.6055 12.7333 16.0215 11.72C16.4375 10.696 17.0082 9.8 17.7335 9.032C18.4695 8.25333 19.3228 7.64533 20.2935 7.208C21.2642 6.77067 22.2988 6.552 23.3975 6.552C24.8695 6.552 26.2082 6.93067 27.4135 7.688C28.6295 8.44533 29.5948 9.464 30.3095 10.744C31.0348 12.024 31.3975 13.4427 31.3975 15C31.3975 16.1627 31.1895 17.2507 30.7735 18.264C30.3575 19.2773 29.7815 20.1733 29.0455 20.952C28.3202 21.72 27.4722 22.3227 26.5015 22.76C25.5415 23.1973 24.5068 23.416 23.3975 23.416ZM23.3975 19.512C24.1762 19.512 24.8748 19.304 25.4935 18.888C26.1122 18.472 26.5975 17.9227 26.9495 17.24C27.3122 16.5573 27.4935 15.8107 27.4935 15C27.4935 14.168 27.3068 13.4107 26.9335 12.728C26.5708 12.0347 26.0748 11.4853 25.4455 11.08C24.8268 10.664 24.1442 10.456 23.3975 10.456C22.6295 10.456 21.9362 10.664 21.3175 11.08C20.6988 11.496 20.2082 12.0507 19.8455 12.744C19.4828 13.4373 19.3015 14.1893 19.3015 15C19.3015 15.8427 19.4882 16.6053 19.8615 17.288C20.2348 17.9707 20.7308 18.5147 21.3495 18.92C21.9788 19.3147 22.6615 19.512 23.3975 19.512ZM45.8233 7H49.7273V23.304C49.7273 24.456 49.4926 25.5013 49.0233 26.44C48.5539 27.3893 47.9139 28.2 47.1033 28.872C46.2926 29.5547 45.3646 30.0773 44.3193 30.44C43.2739 30.8133 42.1753 31 41.0233 31C39.9033 31 38.8259 30.7707 37.7913 30.312C36.7566 29.8533 35.8393 29.224 35.0393 28.424C34.2499 27.6347 33.6473 26.7333 33.2313 25.72L36.7993 24.104C37.0126 24.6907 37.3326 25.2027 37.7593 25.64C38.1966 26.088 38.6979 26.4347 39.2633 26.68C39.8286 26.936 40.4153 27.064 41.0233 27.064C41.6419 27.064 42.2339 26.9787 42.7993 26.808C43.3753 26.6373 43.8926 26.3867 44.3513 26.056C44.8099 25.736 45.1673 25.3413 45.4233 24.872C45.6899 24.4133 45.8233 23.8907 45.8233 23.304V21.048C45.3219 21.752 44.6926 22.3227 43.9353 22.76C43.1779 23.1973 42.3033 23.416 41.3113 23.416C40.1593 23.416 39.0819 23.1973 38.0793 22.76C37.0766 22.3227 36.1913 21.72 35.4233 20.952C34.6659 20.1733 34.0686 19.2773 33.6313 18.264C33.2046 17.2507 32.9913 16.1627 32.9913 15C32.9913 13.8373 33.2046 12.7493 33.6313 11.736C34.0686 10.7227 34.6659 9.832 35.4233 9.064C36.1913 8.28533 37.0766 7.67733 38.0793 7.24C39.0819 6.80267 40.1593 6.584 41.3113 6.584C42.3033 6.584 43.1779 6.80267 43.9353 7.24C44.6926 7.66667 45.3219 8.232 45.8233 8.936V7ZM41.3593 19.656C42.1806 19.656 42.9059 19.448 43.5353 19.032C44.1753 18.6053 44.6766 18.04 45.0393 17.336C45.4019 16.6213 45.5833 15.8427 45.5833 15C45.5833 14.1467 45.3966 13.368 45.0233 12.664C44.6606 11.96 44.1593 11.3947 43.5193 10.968C42.8899 10.5413 42.1699 10.328 41.3593 10.328C40.5593 10.328 39.8286 10.5413 39.1673 10.968C38.5059 11.384 37.9779 11.944 37.5833 12.648C37.1886 13.352 36.9913 14.136 36.9913 15C36.9913 15.864 37.1886 16.648 37.5833 17.352C37.9779 18.056 38.5059 18.616 39.1673 19.032C39.8286 19.448 40.5593 19.656 41.3593 19.656ZM61.2638 7H65.1678V23H61.2638V7ZM63.2478 4.936C62.6718 4.936 62.1864 4.74933 61.7918 4.376C61.3971 3.992 61.1998 3.512 61.1998 2.936C61.1998 2.37067 61.3971 1.896 61.7918 1.512C62.1864 1.128 62.6664 0.935999 63.2318 0.935999C63.7971 0.935999 64.2718 1.128 64.6558 1.512C65.0504 1.896 65.2478 2.37067 65.2478 2.936C65.2478 3.512 65.0558 3.992 64.6718 4.376C64.2878 4.74933 63.8131 4.936 63.2478 4.936ZM83.5448 12.888V23H79.6408V13.912C79.6408 13.2827 79.4861 12.712 79.1768 12.2C78.8674 11.6773 78.4514 11.2667 77.9288 10.968C77.4168 10.6587 76.8461 10.504 76.2168 10.504C75.5874 10.504 75.0114 10.6587 74.4888 10.968C73.9768 11.2667 73.5661 11.6773 73.2568 12.2C72.9581 12.712 72.8088 13.2827 72.8088 13.912V23H68.9048L68.8888 7H72.7928L72.8088 8.424C73.3528 7.848 74.0034 7.39467 74.7608 7.064C75.5181 6.72267 76.3341 6.552 77.2088 6.552C78.3714 6.552 79.4328 6.84 80.3928 7.416C81.3528 7.98133 82.1154 8.744 82.6808 9.704C83.2568 10.6533 83.5448 11.7147 83.5448 12.888ZM110.836 24.12C110.345 24.12 109.876 23.9707 109.428 23.672C108.98 23.3947 108.607 23.032 108.308 22.584C108.031 22.136 107.892 21.688 107.892 21.24C107.892 20.728 108.105 20.184 108.532 19.608C108.959 19.032 109.46 18.4667 110.036 17.912C110.633 17.336 111.156 16.8453 111.604 16.44H98.388C97.172 16.44 96.308 16.344 95.796 16.152C95.284 15.96 94.8787 15.64 94.58 15.192C94.2813 14.7653 94.132 14.168 94.132 13.4C94.132 12.632 94.2707 12.0347 94.548 11.608C94.8467 11.1813 95.252 10.8613 95.764 10.648C96.276 10.456 97.1507 10.36 98.388 10.36H111.604L110.036 8.856C109.161 8.00267 108.585 7.352 108.308 6.904C108.031 6.43467 107.892 5.98667 107.892 5.56C107.892 5.112 108.031 4.664 108.308 4.216C108.585 3.768 108.948 3.40533 109.396 3.128C109.865 2.82933 110.345 2.68 110.836 2.68C111.263 2.68 111.721 2.81867 112.212 3.096C112.703 3.352 113.279 3.8 113.94 4.44L123.156 13.4L114.132 22.168C113.364 22.8933 112.735 23.3947 112.244 23.672C111.753 23.9707 111.284 24.12 110.836 24.12Z" fill="white"/>
</svg>
